<svg xmlns="http://www.w3.org/2000/svg" viewBox="0 0 1200 750" width="1200" height="750">
<defs>
  <pattern id="hatch" width="5" height="5" patternUnits="userSpaceOnUse" patternTransform="rotate(45)">
    <line x1="0" y1="0" x2="0" y2="5" stroke="#1f2d3d" stroke-width="0.7" opacity="0.28"/>
  </pattern>
  <marker id="arrow" viewBox="0 0 10 10" refX="8" refY="5" markerWidth="7" markerHeight="7" orient="auto-start-reverse">
    <path d="M1,1 L9,5 L1,9" fill="none" stroke="#0054d8" stroke-width="1.8" stroke-linecap="round" stroke-linejoin="round"/>
  </marker>
  <filter id="pencil" x="-2%" y="-2%" width="104%" height="104%">
    <feTurbulence type="fractalNoise" baseFrequency="0.032" numOctaves="2" seed="4" result="n"/>
    <feDisplacementMap in="SourceGraphic" in2="n" scale="2.6" xChannelSelector="R" yChannelSelector="G"/>
  </filter>
</defs>
<rect width="1200" height="750" fill="#f9fbfd"/><g filter="url(#pencil)"><text x="40" y="100" font-family="'Geist Mono', 'Consolas', monospace" font-size="10.5" font-weight="600" fill="#526176" text-anchor="start" letter-spacing="1.6" >YOUR TOOLS, AS THEY ARE</text><rect x="40" y="124" width="270" height="96" rx="10" fill="#fff" stroke="#0054d8" stroke-width="2.4" stroke-linejoin="round" /><rect x="56" y="150" width="44" height="44" rx="9" fill="#e7eef7" stroke="#c7ccd6" stroke-width="1.6" stroke-linejoin="round" /><g transform="translate(78,172)"><rect x="-4" y="-14" width="8" height="24" rx="4" fill="#fff" stroke="#0054d8" stroke-width="2" stroke-linejoin="round" /><circle cx="0" cy="12" r="7" fill="#0054d8" stroke="#1f2d3d" stroke-width="0" /><line x1="0" y1="-2" x2="0" y2="10" stroke="#0054d8" stroke-width="2.4" stroke-linecap="round" /></g><text x="114" y="170" font-family="Geist, 'Segoe UI', Arial, sans-serif" font-size="12" font-weight="650" fill="#1f2d3d" text-anchor="start" >Environmental conditions</text><text x="114" y="190" font-family="'Geist Mono', 'Consolas', monospace" font-size="8.6" font-weight="500" fill="#526176" text-anchor="start" >Temperature · humidity · pressure</text><path d="M312,172 L336,172" fill="none" stroke="#0054d8" stroke-width="2.2" stroke-linecap="round" stroke-linejoin="round" marker-end="url(#arrow)"/><rect x="40" y="248" width="270" height="96" rx="10" fill="#fff" stroke="#0054d8" stroke-width="2.4" stroke-linejoin="round" /><rect x="56" y="274" width="44" height="44" rx="9" fill="#e7eef7" stroke="#c7ccd6" stroke-width="1.6" stroke-linejoin="round" /><g transform="translate(78,296)"><path d="M-5,-14 L-5,-2 L-13,12 L13,12 L5,-2 L5,-14 M-8,-14 L8,-14" fill="#fff" stroke="#0054d8" stroke-width="2.2" stroke-linecap="round" stroke-linejoin="round" /><path d="M-9,6 L9,6" fill="none" stroke="#0054d8" stroke-width="2" stroke-linecap="round" stroke-linejoin="round" /></g><text x="114" y="294" font-family="Geist, 'Segoe UI', Arial, sans-serif" font-size="12" font-weight="650" fill="#1f2d3d" text-anchor="start" >QC instruments & equipment</text><text x="114" y="314" font-family="'Geist Mono', 'Consolas', monospace" font-size="8.6" font-weight="500" fill="#526176" text-anchor="start" >HPLC · balances · calibration</text><path d="M312,296 L336,296" fill="none" stroke="#0054d8" stroke-width="2.2" stroke-linecap="round" stroke-linejoin="round" marker-end="url(#arrow)"/><rect x="40" y="372" width="270" height="96" rx="10" fill="#fff" stroke="#0054d8" stroke-width="2.4" stroke-linejoin="round" /><rect x="56" y="398" width="44" height="44" rx="9" fill="#e7eef7" stroke="#c7ccd6" stroke-width="1.6" stroke-linejoin="round" /><g transform="translate(78,420)"><ellipse cx="0" cy="-9" rx="12" ry="5" fill="#fff" stroke="#0054d8" stroke-width="2.2"/><path d="M-12,-9 L-12,9 C-12,16 12,16 12,9 L12,-9 M-12,0 C-12,7 12,7 12,0" fill="none" stroke="#0054d8" stroke-width="2.2" stroke-linecap="round" stroke-linejoin="round" /></g><text x="114" y="418" font-family="Geist, 'Segoe UI', Arial, sans-serif" font-size="12" font-weight="650" fill="#1f2d3d" text-anchor="start" >Laboratory records</text><text x="114" y="438" font-family="'Geist Mono', 'Consolas', monospace" font-size="8.6" font-weight="500" fill="#526176" text-anchor="start" >LIMS · ELN · CDS audit trails</text><path d="M312,420 L336,420" fill="none" stroke="#0054d8" stroke-width="2.2" stroke-linecap="round" stroke-linejoin="round" marker-end="url(#arrow)"/><rect x="40" y="496" width="270" height="96" rx="10" fill="#fff" stroke="#0054d8" stroke-width="2.4" stroke-linejoin="round" /><rect x="56" y="522" width="44" height="44" rx="9" fill="#e7eef7" stroke="#c7ccd6" stroke-width="1.6" stroke-linejoin="round" /><g transform="translate(78,544)"><circle cx="-8" cy="-4" r="6" fill="#fff" stroke="#0054d8" stroke-width="2.2" /><circle cx="8" cy="-4" r="6" fill="#fff" stroke="#0054d8" stroke-width="2.2" /><path d="M-15,12 C-15,4 -1,4 -1,12 M1,12 C1,4 15,4 15,12" fill="none" stroke="#0054d8" stroke-width="2.2" stroke-linecap="round" stroke-linejoin="round" /><line x1="-2" y1="-4" x2="2" y2="-4" stroke="#0054d8" stroke-width="2.2" stroke-linecap="round" /></g><text x="114" y="542" font-family="Geist, 'Segoe UI', Arial, sans-serif" font-size="12" font-weight="650" fill="#1f2d3d" text-anchor="start" >Partners & contractors</text><text x="114" y="562" font-family="'Geist Mono', 'Consolas', monospace" font-size="8.6" font-weight="500" fill="#526176" text-anchor="start" >Contract labs · CDMOs · CoAs</text><path d="M312,544 L336,544" fill="none" stroke="#0054d8" stroke-width="2.2" stroke-linecap="round" stroke-linejoin="round" marker-end="url(#arrow)"/><rect x="340" y="100" width="300" height="516" rx="14" fill="#fff" stroke="#0054d8" stroke-width="2.8" stroke-linejoin="round" /><rect x="348" y="108" width="284" height="500" rx="10" fill="none" stroke="#b6d3ff" stroke-width="1.2" stroke-linejoin="round" /><text x="362" y="142" font-family="Geist, 'Segoe UI', Arial, sans-serif" font-size="20" font-weight="700" fill="#0054d8" text-anchor="start" >Integrations</text><text x="362" y="160" font-family="'Geist Mono', 'Consolas', monospace" font-size="9" font-weight="600" fill="#1f2d3d" text-anchor="start" letter-spacing="1.6" >PRODUCT 02</text><text x="362" y="200" font-family="'Geist Mono', 'Consolas', monospace" font-size="9.5" font-weight="600" fill="#526176" text-anchor="start" letter-spacing="1.6" >CHECKED AS IT ARRIVES</text><rect x="362" y="212" width="256" height="34" rx="7" fill="#fff" stroke="#1f2d3d" stroke-width="1.8" stroke-linejoin="round" /><g transform="translate(380,229)"><circle cx="0" cy="0" r="9" fill="#0054d8" stroke="#1f2d3d" stroke-width="0" /><path d="M-4.05,0.45 L-0.9,3.78 L4.5,-3.42" fill="none" stroke="#fff" stroke-width="2.4" stroke-linecap="round" stroke-linejoin="round" /></g><text x="398" y="234" font-family="Geist, 'Segoe UI', Arial, sans-serif" font-size="12" font-weight="600" fill="#1f2d3d" text-anchor="start" >Sample record received</text><rect x="362" y="258" width="256" height="34" rx="7" fill="#fff" stroke="#1f2d3d" stroke-width="1.8" stroke-linejoin="round" /><g transform="translate(380,275)"><circle cx="0" cy="0" r="9" fill="#0054d8" stroke="#1f2d3d" stroke-width="0" /><path d="M-4.05,0.45 L-0.9,3.78 L4.5,-3.42" fill="none" stroke="#fff" stroke-width="2.4" stroke-linecap="round" stroke-linejoin="round" /></g><text x="398" y="280" font-family="Geist, 'Segoe UI', Arial, sans-serif" font-size="12" font-weight="600" fill="#1f2d3d" text-anchor="start" >Run record received</text><rect x="362" y="304" width="256" height="34" rx="7" fill="#fff" stroke="#0054d8" stroke-width="2" stroke-linejoin="round" stroke-dasharray="6 5"/><g transform="translate(376,331) scale(0.7)"><path d="M0,0 L0,-30 L24,-23 L0,-15" fill="#0054d8" stroke="#0054d8" stroke-width="2" stroke-linecap="round" stroke-linejoin="round" /></g><text x="398" y="326" font-family="Geist, 'Segoe UI', Arial, sans-serif" font-size="12" font-weight="600" fill="#0054d8" text-anchor="start" >Result field missing</text><text x="608" y="325" font-family="'Geist Mono', 'Consolas', monospace" font-size="8" font-weight="600" fill="#0054d8" text-anchor="end" letter-spacing="1.6" >FLAGGED</text><text x="362" y="372" font-family="'Geist Mono', 'Consolas', monospace" font-size="9.5" font-weight="600" fill="#526176" text-anchor="start" letter-spacing="1.6" >SIDE BY SIDE</text><rect x="362" y="384" width="108" height="84" rx="8" fill="#fff" stroke="#1f2d3d" stroke-width="1.8" stroke-linejoin="round" /><text x="416" y="404" font-family="'Geist Mono', 'Consolas', monospace" font-size="9" font-weight="600" fill="#526176" text-anchor="middle" >chromatography</text><rect x="510" y="384" width="108" height="84" rx="8" fill="#fff" stroke="#1f2d3d" stroke-width="1.8" stroke-linejoin="round" /><text x="564" y="404" font-family="'Geist Mono', 'Consolas', monospace" font-size="9" font-weight="600" fill="#526176" text-anchor="middle" >LIMS / ELN</text><line x1="378" y1="422" x2="454" y2="422" stroke="#1f2d3d" stroke-width="1.6" stroke-linecap="round" /><line x1="378" y1="434" x2="454" y2="434" stroke="#1f2d3d" stroke-width="1.6" stroke-linecap="round" /><line x1="378" y1="446" x2="432" y2="446" stroke="#1f2d3d" stroke-width="1.6" stroke-linecap="round" /><line x1="526" y1="422" x2="602" y2="422" stroke="#1f2d3d" stroke-width="1.6" stroke-linecap="round" /><line x1="526" y1="434" x2="602" y2="434" stroke="#1f2d3d" stroke-width="1.6" stroke-linecap="round" /><line x1="526" y1="446" x2="580" y2="446" stroke="#1f2d3d" stroke-width="1.6" stroke-linecap="round" /><path d="M474,420 L506,420" fill="none" stroke="#0054d8" stroke-width="2" stroke-linecap="round" stroke-linejoin="round" marker-end="url(#arrow)"/><path d="M506,440 L474,440" fill="none" stroke="#0054d8" stroke-width="2" stroke-linecap="round" stroke-linejoin="round" marker-end="url(#arrow)"/><text x="490" y="490" font-family="Geist, 'Segoe UI', Arial, sans-serif" font-size="11.5" font-weight="600" fill="#0054d8" text-anchor="middle" >same event, one view</text><rect x="362" y="520" width="256" height="60" rx="8" fill="#e7eef7" stroke="#c7ccd6" stroke-width="1.6" stroke-linejoin="round" /><text x="490" y="545" font-family="Geist, 'Segoe UI', Arial, sans-serif" font-size="12.5" font-weight="650" fill="#1f2d3d" text-anchor="middle" >Keep every system you have.</text><text x="490" y="563" font-family="Geist, 'Segoe UI', Arial, sans-serif" font-size="10.5" font-weight="500" fill="#526176" text-anchor="middle" >Nothing to rip out or replace.</text><path d="M642,300 L696,300" fill="none" stroke="#0054d8" stroke-width="2.6" stroke-linecap="round" stroke-linejoin="round" marker-end="url(#arrow)"/><path d="M706,236 L706,360 C706,386 846,386 846,360 L846,236" fill="#fff" stroke="#1f2d3d" stroke-width="2.8" stroke-linecap="round" stroke-linejoin="round" /><ellipse cx="776" cy="236" rx="70" ry="22" fill="#e7eef7" stroke="#1f2d3d" stroke-width="2.8"/><text x="776" y="302" font-family="Geist, 'Segoe UI', Arial, sans-serif" font-size="17" font-weight="700" fill="#0054d8" text-anchor="middle" >Quality Core</text><text x="776" y="322" font-family="'Geist Mono', 'Consolas', monospace" font-size="9" font-weight="600" fill="#1f2d3d" text-anchor="middle" >one connected record</text><g transform="translate(896,150)"><circle cx="0" cy="0" r="10" fill="#0054d8" stroke="#1f2d3d" stroke-width="0" /><path d="M-4.5,0.5 L-1.0,4.2 L5.0,-3.8" fill="none" stroke="#fff" stroke-width="2.4" stroke-linecap="round" stroke-linejoin="round" /></g><text x="918" y="155" font-family="Geist, 'Segoe UI', Arial, sans-serif" font-size="13" font-weight="650" fill="#1f2d3d" text-anchor="start" >Bad data caught on arrival</text><text x="918" y="176" font-family="Geist, 'Segoe UI', Arial, sans-serif" font-size="11.5" font-weight="500" fill="#526176" text-anchor="start" >Missing or malformed records</text><text x="918" y="192" font-family="Geist, 'Segoe UI', Arial, sans-serif" font-size="11.5" font-weight="500" fill="#526176" text-anchor="start" >are flagged when they arrive.</text><g transform="translate(896,250)"><circle cx="0" cy="0" r="10" fill="#0054d8" stroke="#1f2d3d" stroke-width="0" /><path d="M-4.5,0.5 L-1.0,4.2 L5.0,-3.8" fill="none" stroke="#fff" stroke-width="2.4" stroke-linecap="round" stroke-linejoin="round" /></g><text x="918" y="255" font-family="Geist, 'Segoe UI', Arial, sans-serif" font-size="13" font-weight="650" fill="#1f2d3d" text-anchor="start" >See records side by side</text><text x="918" y="276" font-family="Geist, 'Segoe UI', Arial, sans-serif" font-size="11.5" font-weight="500" fill="#526176" text-anchor="start" >Compare what different</text><text x="918" y="292" font-family="Geist, 'Segoe UI', Arial, sans-serif" font-size="11.5" font-weight="500" fill="#526176" text-anchor="start" >systems say about one event.</text><g transform="translate(896,350)"><circle cx="0" cy="0" r="10" fill="#0054d8" stroke="#1f2d3d" stroke-width="0" /><path d="M-4.5,0.5 L-1.0,4.2 L5.0,-3.8" fill="none" stroke="#fff" stroke-width="2.4" stroke-linecap="round" stroke-linejoin="round" /></g><text x="918" y="355" font-family="Geist, 'Segoe UI', Arial, sans-serif" font-size="13" font-weight="650" fill="#1f2d3d" text-anchor="start" >Know what's connected</text><text x="918" y="376" font-family="Geist, 'Segoe UI', Arial, sans-serif" font-size="11.5" font-weight="500" fill="#526176" text-anchor="start" >Every connection is labeled</text><text x="918" y="392" font-family="Geist, 'Segoe UI', Arial, sans-serif" font-size="11.5" font-weight="500" fill="#526176" text-anchor="start" >connected or on the roadmap.</text><rect x="880" y="470" width="280" height="92" rx="10" fill="none" stroke="#8a97a8" stroke-width="1.8" stroke-linejoin="round" stroke-dasharray="6 6"/><text x="896" y="494" font-family="'Geist Mono', 'Consolas', monospace" font-size="9" font-weight="600" fill="#526176" text-anchor="start" letter-spacing="1.6" >ON THE ROADMAP</text><text x="896" y="516" font-family="Geist, 'Segoe UI', Arial, sans-serif" font-size="11.5" font-weight="500" fill="#526176" text-anchor="start" >Direct connectors for named</text><text x="896" y="532" font-family="Geist, 'Segoe UI', Arial, sans-serif" font-size="11.5" font-weight="500" fill="#526176" text-anchor="start" >chromatography systems. Ask us</text><text x="896" y="548" font-family="Geist, 'Segoe UI', Arial, sans-serif" font-size="11.5" font-weight="500" fill="#526176" text-anchor="start" >where your system sits.</text></g><image href="assets/logo.png" x="34" y="26" width="34" height="34"/><text x="76" y="48" font-family="Geist, 'Segoe UI', Arial, sans-serif" font-size="20" font-weight="700" fill="#0054d8" text-anchor="start" >PixeSci</text><text x="76" y="62" font-family="'Geist Mono', 'Consolas', monospace" font-size="7.5" font-weight="500" fill="#526176" text-anchor="start" letter-spacing="2.4" >TALK TO YOUR LAB</text><text x="1166" y="44" font-family="'Geist Mono', 'Consolas', monospace" font-size="10.5" font-weight="600" fill="#526176" text-anchor="end" letter-spacing="1.6" >06 / 09</text><text x="600" y="668" font-family="'Geist Mono', 'Consolas', monospace" font-size="10.5" font-weight="600" fill="#0054d8" text-anchor="middle" letter-spacing="1.6" >PRODUCT 02 · INTEGRATIONS</text><text x="600" y="706" font-family="Geist, 'Segoe UI', Arial, sans-serif" font-size="27" font-weight="650" fill="#1f2d3d" text-anchor="middle" letter-spacing="-0.4">Your tools start working together.</text><text x="34" y="728" font-family="'Geist Mono', 'Consolas', monospace" font-size="10" font-weight="500" fill="#526176" text-anchor="start" >pixesci.com</text></svg>